<?xml version="1.0" encoding="utf-8"?>
<!-- Generator: Adobe Illustrator 24.0.0, SVG Export Plug-In . SVG Version: 6.00 Build 0)  -->
<svg version="1.1" id="Layer_1" xmlns="http://www.w3.org/2000/svg" xmlns:xlink="http://www.w3.org/1999/xlink" x="0px" y="0px"
	 viewBox="0 0 414 89" style="enable-background:new 0 0 414 89;" xml:space="preserve">
<path fill="#5D54A4" class="st0" d="M397.1,51.4C361.7,69,325,87.2,279.8,82.8C234,78.4,206,61.5,176.4,43.7C148.8,27.1,120.3,9.9,76.6,3.8
	C44.1-0.7,20.2-0.3,0,3.4v5.1c20-3.8,43.6-4.3,75.9,0.2c42.8,6,70.8,22.9,97.9,39.2c28.8,17.3,58.6,35.3,105.5,39.8
	c4.8,0.5,9.6,0.7,14.2,0.7c40.1,0,73.4-16.5,105.8-32.6c4.9-2.4,9.8-4.9,14.7-7.2v-5.5C408.3,45.9,402.7,48.7,397.1,51.4z"/>
</svg>
