<svg width="69" height="69" viewBox="0 0 69 69" fill="none" xmlns="http://www.w3.org/2000/svg">
<rect width="69" height="69" rx="34.5" fill="#2A3D66"/>
<path d="M59.3552 24.3449C59.6678 23.6419 59.0241 22.8912 58.2816 23.0926C55.8278 23.7575 49.5669 25.5525 43.9658 27.9582C44.1833 27.5713 44.4049 27.1744 44.6308 26.7674C47.797 21.0547 50.6747 15.3073 50.7036 15.25C51.0572 14.5423 50.405 13.7501 49.6429 13.9613C44.9838 15.2522 39.2241 17.9087 33.6047 20.8841C31.8107 14.181 31.1322 12.0121 29.734 11.6936C29.4272 11.6239 28.8294 11.6037 28.2722 12.2537C27.1143 13.6048 26.0438 18.1848 24.3803 26.0771C17.3693 30.2342 11.9817 33.8621 11.5185 34.1753L9.52025 35.5257L11.9111 35.8385C14.4804 36.1738 17.8952 37.3444 21.568 39.1122C20.9845 41.624 20.3759 44.0605 19.744 46.2769C17.6473 53.629 16.042 55.8337 15.0643 56.3888C15.5779 57.2934 16.8542 57.3824 17.4782 56.5503C19.591 53.7323 21.4043 47.7479 23.236 39.9465C24.3704 40.5351 25.5204 41.1756 26.6704 41.8612C32.7229 45.4707 40.6087 52.0535 44.6463 55.5446C45.3289 56.1998 46.1977 56.8948 46.179 56.8818L46.1993 56.8998C46.4964 57.1613 46.8804 57.3025 47.2761 57.296C47.6718 57.2895 48.0509 57.1357 48.3393 56.8647L48.6066 56.6133C48.0695 55.9446 47.716 55.1474 47.5811 54.3004C47.4463 53.4534 47.5346 52.5858 47.8375 51.7834C50.4857 44.7365 55.6897 32.5877 59.354 24.3452L59.3552 24.3449ZM48.0968 16.3499C47.0238 18.4463 45.1858 21.986 43.2158 25.5518C42.4407 26.9552 41.7416 28.1884 41.1109 29.2732C39.3023 30.172 37.8365 31.0522 36.7133 31.9139C35.6935 28.6317 34.8392 25.4993 34.0926 22.7114C38.9411 20.1242 43.8918 17.7694 48.0968 16.349V16.3499ZM39.3872 32.2179C39.3872 32.2179 37.2658 36.1441 35.841 37.0142C35.8423 37.0142 33.9657 35.2762 39.3872 32.2179ZM29.4541 13.7485C30.1045 14.8786 31.0372 18.3498 31.951 21.7697C30.0934 22.7779 28.2649 23.8097 26.5114 24.8271C27.5927 19.7537 28.6464 15.199 29.4541 13.7485ZM21.986 37.289C19.245 35.9968 16.6395 35.0235 14.3946 34.4634C16.3754 33.1706 19.7835 30.984 23.8654 28.532C23.2753 31.3531 22.6477 34.3478 21.986 37.289ZM27.607 40.291C26.2876 39.5045 24.9644 38.7746 23.6612 38.111C24.3287 35.1774 25.0018 32.019 25.6968 28.6976C25.7966 28.2201 25.8966 27.7424 25.9966 27.2645C28.0477 26.0572 30.2229 24.8138 32.4408 23.6024C33.2273 26.5331 34.1322 29.8216 35.2204 33.2596C34.6121 33.9264 34.2066 34.5873 34.004 35.2423C33.6475 36.3898 33.9036 37.5221 34.7446 38.5125C34.8818 38.6764 35.0583 38.803 35.2575 38.8805C35.4568 38.958 35.6724 38.9839 35.8844 38.9558C36.1988 38.9181 36.5414 38.7807 36.9736 38.4276C38.6292 42.9779 40.6429 47.6048 43.1543 51.8622C38.8337 48.2292 32.6713 43.311 27.607 40.291ZM45.6591 52.4578C42.6041 47.6416 40.2484 42.2098 38.3692 36.9094C38.7976 36.3572 39.2909 35.6625 39.8678 34.788C40.6169 33.6547 41.4693 32.2733 42.4163 30.6578C46.3833 28.7463 51.6382 26.882 56.9024 25.3701C54.5746 30.6512 48.3948 44.8058 45.6591 52.4578Z" fill="white"/>
</svg>
