<svg width="20" height="18" viewBox="0 0 20 18" fill="none" xmlns="http://www.w3.org/2000/svg">
<path fill-rule="evenodd" clip-rule="evenodd" d="M18.75 18C18.4185 18 18.1005 17.8683 17.8661 17.6339C17.6317 17.3995 17.5 17.0815 17.5 16.75L17.5 1.75C17.5 1.41848 17.6317 1.10054 17.8661 0.866115C18.1005 0.631695 18.4185 0.5 18.75 0.5C19.0815 0.5 19.3995 0.631695 19.6339 0.866116C19.8683 1.10054 20 1.41848 20 1.75L20 16.75C20 17.0815 19.8683 17.3995 19.6339 17.6339C19.3995 17.8683 19.0815 18 18.75 18ZM9.11625 13.8837C8.88191 13.6493 8.75027 13.3315 8.75027 13C8.75027 12.6685 8.88191 12.3507 9.11625 12.1162C9.71269 11.5198 9.29027 10.5 8.44678 10.5L1.25 10.5C0.918481 10.5 0.600537 10.3683 0.366116 10.1339C0.131696 9.89946 7.35967e-07 9.58152 7.64949e-07 9.25C7.93932e-07 8.91848 0.131696 8.60054 0.366116 8.36611C0.600537 8.13169 0.918481 8 1.25 8L8.44678 8C9.29027 8 9.71269 6.98019 9.11625 6.38375C8.88855 6.148 8.76256 5.83224 8.76541 5.5045C8.76826 5.17675 8.89972 4.86324 9.13148 4.63148C9.36324 4.39972 9.67675 4.26825 10.0045 4.26541C10.3322 4.26256 10.648 4.38855 10.8838 4.61625L14.6338 8.36625C14.8681 8.60066 14.9997 8.91854 14.9997 9.25C14.9997 9.58145 14.8681 9.89934 14.6338 10.1337L10.8838 13.8837C10.6493 14.1181 10.3315 14.2497 10 14.2497C9.66855 14.2497 9.35066 14.1181 9.11625 13.8837Z" fill="white"/>
</svg>
